# xmcd
#
# Track frame offsets: 
#        150
#        18695
#        33631
#        52547
#        71459
#        84477
#        101173
#        121495
#        139765
#        155520
#        180932
#        199834
#
# Disc length: 2942 seconds
#
# Revision: 3
# Processed by: cddbd v1.5.2PL0 Copyright (c) Steve Scherf et al.
# Submitted via: ExactAudioCopy v0.99pb5
#
DISCID=9c0b7c0c
DTITLE=Takáts Tamás Dirty Blues Band - Indulok tovább
DYEAR=1996
DGENRE=Blues
TTITLE0=Indulok tovább
TTITLE1=Szegény ember blues
TTITLE2=Vigyázz magadra, asszony
TTITLE3=Szálljunk most fel
TTITLE4=Rolling Stones
TTITLE5=Tokaj
TTITLE6=Ott leszek veled
TTITLE7=Ez a nõ!
TTITLE8=Mi legyen?
TTITLE9=A szív
TTITLE10=Come together
TTITLE11=Várlak
EXTD=
EXTT0=
EXTT1=
EXTT2=
EXTT3=
EXTT4=
EXTT5=
EXTT6=
EXTT7=
EXTT8=
EXTT9=
EXTT10=
EXTT11=
PLAYORDER=
